# xmcd
#
# Track frame offsets: 
#        150
#        14242
#        27445
#        39515
#        52805
#        67447
#        83872
#        98857
#        112405
#        120117
#        133297
#        144415
#        156890
#        168990
#        180275
#        192680
#        205430
#        218502
#        229582
#        244490
#        256730
#        270360
#        282665
#        295132
#        306910
#        321615
#
# Disc length: 4428 seconds
#
# Revision: 4
# Processed by: cddbd v1.5.2PL0 Copyright (c) Steve Scherf et al.
# Submitted via: ExactAudioCopy v0.95b4
#
DISCID=94114a1a
DTITLE=The Meters - Funkify Your Life: The Meters Anthology
DYEAR=1970
DGENRE=Funk
TTITLE0=Cissy Strut
TTITLE1=Here Comes The Meter Man
TTITLE2=Live Wire
TTITLE3=Sophisticated Cissy
TTITLE4=Ease Back
TTITLE5=Stormy
TTITLE6=Look-Ka Py Py
TTITLE7=Pungee
TTITLE8=Thinking
TTITLE9=This Is My Last Affair
TTITLE10=Funky Miracle
TTITLE11=Yeah, You're Right
TTITLE12=Little Old Money Maker
TTITLE13=Dry Spell
TTITLE14=Chicken Strut
TTITLE15=Same Old Thing
TTITLE16=Darling Darling Darling
TTITLE17=Tippi-Toes
TTITLE18=Ride Your Pony
TTITLE19=A Message From The Meters
TTITLE20=Zony Mash
TTITLE21=Stretch Your Rubber Band
TTITLE22=Groovy Lady
TTITLE23=(The World Is A Bit Under The Weather) Doodle-Oop
TTITLE24=I Need More Time
TTITLE25=Good Old Funky Music
EXTD=
EXTT0=
EXTT1=
EXTT2=
EXTT3=
EXTT4=
EXTT5=
EXTT6=
EXTT7=
EXTT8=
EXTT9=
EXTT10=
EXTT11=
EXTT12=
EXTT13=
EXTT14=
EXTT15=
EXTT16=
EXTT17=
EXTT18=
EXTT19=
EXTT20=
EXTT21=
EXTT22=
EXTT23=
EXTT24=
EXTT25=
PLAYORDER=
